<svg width="110" height="110" viewBox="0 0 110 110" fill="none" xmlns="http://www.w3.org/2000/svg">
<path d="M11.467 96.7795C11.467 97.7526 12.2791 98.5414 13.2809 98.5414L96.7138 98.5416C97.7155 98.5416 98.5276 97.7528 98.5276 96.78V94.6758C98.5693 94.0417 98.6541 90.8771 96.5683 87.3786C95.2528 85.1727 93.3439 83.2669 90.8941 81.7146C87.9305 79.8365 84.1605 78.4758 79.6005 77.6565C79.5668 77.6521 76.1857 77.2039 72.7219 76.3193C66.69 74.7786 66.1627 73.4151 66.1592 73.4018C66.1237 73.267 66.0724 73.1375 66.0066 73.0159C65.9573 72.7615 65.8354 71.8043 66.0685 69.2394C66.6602 62.7251 70.1545 58.8751 72.9623 55.7818C73.8478 54.8063 74.684 53.8848 75.3282 52.9812C78.1064 49.0831 78.3642 44.6505 78.3759 44.3758C78.3759 43.8191 78.3119 43.3615 78.1751 42.9373C77.9024 42.0884 77.3893 41.5595 77.0146 41.1734L77.0121 41.1706C76.9177 41.0735 76.8285 40.9813 76.7557 40.8968C76.7279 40.8645 76.6541 40.779 76.7213 40.3401C76.9679 38.7247 77.1159 37.3722 77.1869 36.0836C77.3134 33.7878 77.4122 30.3544 76.82 27.0129C76.7469 26.4423 76.6214 25.8396 76.4259 25.1216C75.8003 22.8207 74.7951 20.8534 73.3986 19.2298C73.1584 18.9685 67.3193 12.8167 50.3683 11.5545C48.0243 11.38 45.7072 11.474 43.4263 11.5906C42.8766 11.6178 42.1238 11.6551 41.4193 11.8376C39.6691 12.291 39.2021 13.4003 39.0795 14.0211C38.8762 15.0495 39.2335 15.8494 39.4698 16.3789V16.3789V16.379C39.5042 16.4557 39.5465 16.5506 39.4725 16.7978C39.079 17.4071 38.4601 17.9565 37.8289 18.477C37.6465 18.632 33.3959 22.2971 33.1622 27.0849C32.532 30.7261 32.5797 36.3994 33.3249 40.3204C33.3682 40.537 33.4322 40.8576 33.3283 41.0741C32.5269 41.7924 31.6185 42.6064 31.6208 44.4637C31.6304 44.6505 31.8883 49.0831 34.6667 52.9812C35.3102 53.8841 36.1457 54.8049 37.0305 55.7798L37.0326 55.7818V55.7821C39.8403 58.8754 43.3344 62.7251 43.9264 69.2392C44.1592 71.804 44.0373 72.7615 43.988 73.0156C43.9223 73.1373 43.8709 73.2668 43.8356 73.4015C43.832 73.4148 43.3067 74.774 37.3021 76.3115C33.838 77.1986 30.4278 77.6519 30.326 77.6666C25.8946 78.4146 22.1477 79.7414 19.1895 81.6096C16.748 83.1517 14.8354 85.0609 13.5047 87.2842C11.3787 90.8368 11.4362 94.0722 11.467 94.6627V96.7795Z" stroke="#333333" stroke-width="2" stroke-linejoin="round"/>
</svg>
