<svg width="121" height="110" viewBox="0 0 121 110" fill="none" xmlns="http://www.w3.org/2000/svg">
<path d="M41.5933 37.8125V29.2187C41.5933 26.9395 42.5892 24.7537 44.362 23.1421C46.1348 21.5304 48.5393 20.625 51.0464 20.625H100.203C102.71 20.625 105.114 21.5304 106.887 23.1421C108.66 24.7537 109.656 26.9395 109.656 29.2187V80.7812C109.656 83.0604 108.66 85.2463 106.887 86.8579C105.114 88.4696 102.71 89.375 100.203 89.375H51.0464C48.5393 89.375 46.1348 88.4696 44.362 86.8579C42.5892 85.2463 41.5933 83.0604 41.5933 80.7812V72.1875" stroke="black" stroke-width="0.609939" stroke-linecap="round" stroke-linejoin="round"/>
<path d="M64.2817 72.1873L83.188 54.9998L64.2817 37.8123" stroke="black" stroke-width="0.609939" stroke-linecap="round" stroke-linejoin="round"/>
<path d="M11.3433 55H79.4058" stroke="black" stroke-width="0.609939" stroke-linecap="round" stroke-linejoin="round"/>
</svg>
