<svg width="274" height="67" viewBox="0 0 274 67" fill="none" xmlns="http://www.w3.org/2000/svg">
<rect width="274" height="67" rx="16" fill="#F0BF5F"/>
<path d="M22.84 16.84H26.16V39.8H40.84V43H22.84V16.84ZM47.2194 38.16C47.2194 38.9867 47.566 39.6133 48.2594 40.04C48.9794 40.4667 49.9127 40.68 51.0594 40.68C52.6327 40.68 53.8994 40.24 54.8594 39.36C55.846 38.48 56.3394 37.36 56.3394 36H56.9794C56.9794 38.32 56.3394 40.1867 55.0594 41.6C53.7794 42.9867 52.0994 43.68 50.0194 43.68C48.2327 43.68 46.7527 43.2 45.5794 42.24C44.4327 41.2533 43.8594 40 43.8594 38.48C43.8594 37.1467 44.2594 36.0933 45.0594 35.32C45.886 34.52 47.1527 33.88 48.8594 33.4L56.3394 31.52V34.04L50.0194 35.52C48.1527 35.9733 47.2194 36.8533 47.2194 38.16ZM59.6994 43H56.3394L57.4194 38.24L56.3394 37.8V30.84C56.3394 29.6667 55.926 28.72 55.0994 28C54.2994 27.28 53.2327 26.92 51.8994 26.92C50.566 26.92 49.4727 27.32 48.6194 28.12C47.7927 28.8933 47.2994 29.9067 47.1394 31.16L43.8594 30.6C44.1527 28.6533 45.0194 27.0533 46.4594 25.8C47.8994 24.5467 49.7394 23.92 51.9794 23.92C54.246 23.92 56.0994 24.5467 57.5394 25.8C58.9794 27.0533 59.6994 28.5867 59.6994 30.4V43ZM63.6075 30.44C63.6075 28.44 64.2742 26.84 65.6075 25.64C66.9675 24.44 68.7942 23.84 71.0875 23.84C73.4875 23.84 75.4075 24.4933 76.8475 25.8C78.3142 27.08 79.0475 28.7867 79.0475 30.92C79.0475 32.8667 78.4208 34.4533 77.1675 35.68C75.9142 36.9067 74.2742 37.52 72.2475 37.52C71.8742 37.36 70.8342 37.24 69.1275 37.16V36.44C67.3942 36.3333 66.0342 35.7467 65.0475 34.68C64.0875 33.5867 63.6075 32.1733 63.6075 30.44ZM66.9675 30.68C66.9675 31.9867 67.3542 33 68.1275 33.72C68.9008 34.44 69.9675 34.8 71.3275 34.8C72.7142 34.8 73.7942 34.44 74.5675 33.72C75.3408 33 75.7275 31.9867 75.7275 30.68C75.7275 29.4 75.3408 28.4133 74.5675 27.72C73.8208 27.0267 72.7408 26.68 71.3275 26.68C69.9408 26.68 68.8608 27.0267 68.0875 27.72C67.3408 28.4133 66.9675 29.4 66.9675 30.68ZM77.0475 23.08C76.1142 23.08 75.6475 23.4267 75.6475 24.12C75.6475 24.44 75.9408 24.92 76.5275 25.56L74.4875 24.88L74.9275 24.04C74.1808 23.56 73.8075 22.9867 73.8075 22.32C73.8075 21.7067 74.0742 21.2267 74.6075 20.88C75.1675 20.5333 75.9408 20.36 76.9275 20.36H80.2475V23.08H77.0475ZM62.9675 46.68C62.9675 45.32 63.5275 44.24 64.6475 43.44C65.7942 42.64 67.3275 42.24 69.2475 42.24V41.76C66.4208 41.2267 65.0075 40.3067 65.0075 39C65.0075 38.2533 65.5008 37.7067 66.4875 37.36C67.5008 37.0133 69.1142 36.84 71.3275 36.84L72.2475 37.52C70.8875 37.52 69.9142 37.5733 69.3275 37.68C68.7675 37.7867 68.4875 37.9733 68.4875 38.24C68.4875 38.7733 69.6342 39.3333 71.9275 39.92C74.7808 40.6133 76.7942 41.4533 77.9675 42.44C79.1408 43.4 79.7275 44.6133 79.7275 46.08C79.7275 47.8933 78.9808 49.32 77.4875 50.36C75.9942 51.4 73.9542 51.92 71.3675 51.92C68.7808 51.92 66.7275 51.44 65.2075 50.48C63.7142 49.5467 62.9675 48.28 62.9675 46.68ZM66.2875 45.88C66.2875 46.8133 66.7408 47.5467 67.6475 48.08C68.5542 48.64 69.8075 48.92 71.4075 48.92C72.9808 48.92 74.1942 48.6533 75.0475 48.12C75.9275 47.5867 76.3675 46.8533 76.3675 45.92C76.3675 45.2267 76.0742 44.6667 75.4875 44.24C74.9275 43.84 73.6875 43.32 71.7675 42.68C70.0875 42.68 68.7542 42.96 67.7675 43.52C66.7808 44.1067 66.2875 44.8933 66.2875 45.88ZM85.6163 33.72C85.6163 35.96 86.0963 37.6933 87.0563 38.92C88.0163 40.12 89.3496 40.72 91.0563 40.72C92.7896 40.72 94.1363 40.12 95.0963 38.92C96.0829 37.6933 96.5763 35.96 96.5763 33.72C96.5763 31.5067 96.0829 29.8 95.0963 28.6C94.1363 27.3733 92.7896 26.76 91.0563 26.76C89.3496 26.76 88.0163 27.3733 87.0563 28.6C86.0963 29.8 85.6163 31.5067 85.6163 33.72ZM82.2563 33.72C82.2563 30.5733 83.0429 28.1467 84.6163 26.44C86.2163 24.7067 88.3629 23.84 91.0563 23.84C93.5896 23.84 95.6963 24.72 97.3763 26.48C99.0829 28.24 99.9363 30.6533 99.9363 33.72C99.9363 36.8667 99.1363 39.32 97.5363 41.08C95.9363 42.8133 93.7763 43.68 91.0563 43.68C88.3629 43.68 86.2163 42.8133 84.6163 41.08C83.0429 39.32 82.2563 36.8667 82.2563 33.72ZM106.455 33.72C106.455 35.96 106.935 37.6933 107.895 38.92C108.855 40.12 110.189 40.72 111.895 40.72C113.629 40.72 114.975 40.12 115.935 38.92C116.922 37.6933 117.415 35.96 117.415 33.72C117.415 31.5067 116.922 29.8 115.935 28.6C114.975 27.3733 113.629 26.76 111.895 26.76C110.189 26.76 108.855 27.3733 107.895 28.6C106.935 29.8 106.455 31.5067 106.455 33.72ZM103.095 33.72C103.095 30.5733 103.882 28.1467 105.455 26.44C107.055 24.7067 109.202 23.84 111.895 23.84C114.429 23.84 116.535 24.72 118.215 26.48C119.922 28.24 120.775 30.6533 120.775 33.72C120.775 36.8667 119.975 39.32 118.375 41.08C116.775 42.8133 114.615 43.68 111.895 43.68C109.202 43.68 107.055 42.8133 105.455 41.08C103.882 39.32 103.095 36.8667 103.095 33.72ZM137.254 31.52C137.254 30.1067 136.828 28.9733 135.974 28.12C135.148 27.24 134.054 26.8 132.694 26.8C131.308 26.8 130.161 27.2533 129.254 28.16C128.348 29.04 127.894 30.1867 127.894 31.6H127.334C127.334 29.3867 127.961 27.56 129.214 26.12C130.468 24.6533 132.094 23.92 134.094 23.92C135.934 23.92 137.481 24.6133 138.734 26C140.014 27.36 140.654 29.0533 140.654 31.08V43H137.254V31.52ZM124.574 24.6H127.894L126.854 29.48L127.894 29.8V43H124.574V24.6ZM147.821 38.16C147.821 38.9867 148.168 39.6133 148.861 40.04C149.581 40.4667 150.514 40.68 151.661 40.68C153.234 40.68 154.501 40.24 155.461 39.36C156.448 38.48 156.941 37.36 156.941 36H157.581C157.581 38.32 156.941 40.1867 155.661 41.6C154.381 42.9867 152.701 43.68 150.621 43.68C148.834 43.68 147.354 43.2 146.181 42.24C145.034 41.2533 144.461 40 144.461 38.48C144.461 37.1467 144.861 36.0933 145.661 35.32C146.488 34.52 147.754 33.88 149.461 33.4L156.941 31.52V34.04L150.621 35.52C148.754 35.9733 147.821 36.8533 147.821 38.16ZM160.301 43H156.941L158.021 38.24L156.941 37.8V30.84C156.941 29.6667 156.528 28.72 155.701 28C154.901 27.28 153.834 26.92 152.501 26.92C151.168 26.92 150.074 27.32 149.221 28.12C148.394 28.8933 147.901 29.9067 147.741 31.16L144.461 30.6C144.754 28.6533 145.621 27.0533 147.061 25.8C148.501 24.5467 150.341 23.92 152.581 23.92C154.848 23.92 156.701 24.5467 158.141 25.8C159.581 27.0533 160.301 28.5867 160.301 30.4V43Z" fill="white"/>
<path d="M88.9415 53.088L87.6775 53.296C87.5175 52.72 87.2508 52.2773 86.8775 51.968C86.5042 51.6587 86.0508 51.504 85.5175 51.504C84.8135 51.504 84.2642 51.7493 83.8695 52.24C83.4748 52.72 83.2775 53.4027 83.2775 54.288C83.2775 55.184 83.4748 55.8773 83.8695 56.368C84.2642 56.848 84.8135 57.088 85.5175 57.088C86.0935 57.088 86.5735 56.9173 86.9575 56.576C87.3522 56.2347 87.6028 55.76 87.7095 55.152L89.0055 55.36C88.8242 56.288 88.4188 57.008 87.7895 57.52C87.1602 58.0213 86.4028 58.272 85.5175 58.272C84.4295 58.272 83.5548 57.9253 82.8935 57.232C82.2428 56.528 81.9175 55.5467 81.9175 54.288C81.9175 53.04 82.2428 52.0693 82.8935 51.376C83.5548 50.6827 84.4295 50.336 85.5175 50.336C86.3068 50.336 87.0055 50.576 87.6135 51.056C88.2322 51.5253 88.6748 52.2027 88.9415 53.088ZM91.2779 54.672C91.3312 55.44 91.5605 56.0373 91.9659 56.464C92.3712 56.88 92.9205 57.088 93.6139 57.088C94.1685 57.088 94.6272 56.944 94.9899 56.656C95.3632 56.368 95.5979 55.9733 95.6939 55.472L96.9899 55.696C96.8085 56.5067 96.4139 57.1413 95.8059 57.6C95.2085 58.048 94.4779 58.272 93.6139 58.272C92.4619 58.272 91.5552 57.92 90.8939 57.216C90.2325 56.5013 89.9019 55.5253 89.9019 54.288C89.9019 53.0613 90.2165 52.096 90.8459 51.392C91.4752 50.688 92.3392 50.336 93.4379 50.336C94.5365 50.336 95.4005 50.6933 96.0299 51.408C96.6699 52.112 96.9899 53.04 96.9899 54.192V54.672H91.2779ZM91.3099 53.68H95.6139C95.6139 53.0507 95.4059 52.5333 94.9899 52.128C94.5845 51.712 94.0672 51.504 93.4379 51.504C92.8299 51.504 92.3445 51.696 91.9819 52.08C91.6192 52.4533 91.3952 52.9867 91.3099 53.68ZM97.8695 50.64H104.254V51.904H101.726V58H100.382V51.904H97.8695V50.64ZM106.752 56.72H108.704C109.866 56.72 110.448 56.3413 110.448 55.584C110.448 54.784 109.85 54.384 108.656 54.384H106.752V56.72ZM106.752 50.64V53.104H108.816C109.701 53.104 110.416 53.328 110.96 53.776C111.504 54.2133 111.776 54.8267 111.776 55.616C111.776 56.3733 111.525 56.96 111.024 57.376C110.522 57.792 109.808 58 108.88 58H105.424V50.64H106.752ZM117.558 54.288C117.558 55.184 117.75 55.8773 118.134 56.368C118.518 56.848 119.052 57.088 119.734 57.088C120.428 57.088 120.966 56.848 121.35 56.368C121.745 55.8773 121.942 55.184 121.942 54.288C121.942 53.4027 121.745 52.72 121.35 52.24C120.966 51.7493 120.428 51.504 119.734 51.504C119.052 51.504 118.518 51.7493 118.134 52.24C117.75 52.72 117.558 53.4027 117.558 54.288ZM116.214 54.288C116.214 53.0293 116.529 52.0587 117.158 51.376C117.798 50.6827 118.657 50.336 119.734 50.336C120.748 50.336 121.59 50.688 122.262 51.392C122.945 52.096 123.286 53.0613 123.286 54.288C123.286 55.5467 122.966 56.528 122.326 57.232C121.686 57.9253 120.822 58.272 119.734 58.272C118.657 58.272 117.798 57.9253 117.158 57.232C116.529 56.528 116.214 55.5467 116.214 54.288ZM124.182 50.64H130.566V51.904H128.038V58H126.694V51.904H124.182V50.64ZM132.856 54.672C132.909 55.44 133.139 56.0373 133.544 56.464C133.949 56.88 134.499 57.088 135.192 57.088C135.747 57.088 136.205 56.944 136.568 56.656C136.941 56.368 137.176 55.9733 137.272 55.472L138.568 55.696C138.387 56.5067 137.992 57.1413 137.384 57.6C136.787 58.048 136.056 58.272 135.192 58.272C134.04 58.272 133.133 57.92 132.472 57.216C131.811 56.5013 131.48 55.5253 131.48 54.288C131.48 53.0613 131.795 52.096 132.424 51.392C133.053 50.688 133.917 50.336 135.016 50.336C136.115 50.336 136.979 50.6933 137.608 51.408C138.248 52.112 138.568 53.04 138.568 54.192V54.672H132.856ZM132.888 53.68H137.192C137.192 53.0507 136.984 52.5333 136.568 52.128C136.163 51.712 135.645 51.504 135.016 51.504C134.408 51.504 133.923 51.696 133.56 52.08C133.197 52.4533 132.973 52.9867 132.888 53.68ZM146.168 50.64V58H144.84V51.904H142.344V54.416C142.344 55.0133 142.301 55.5307 142.216 55.968C142.13 56.4053 142.013 56.752 141.864 57.008C141.725 57.264 141.544 57.472 141.32 57.632C141.106 57.7813 140.888 57.8827 140.664 57.936C140.45 57.9787 140.205 58 139.928 58H139.416V56.704H139.928C140.098 56.704 140.237 56.6827 140.344 56.64C140.461 56.5867 140.573 56.4853 140.68 56.336C140.797 56.176 140.882 55.9253 140.936 55.584C140.989 55.232 141.016 54.784 141.016 54.24V50.64H146.168ZM148.747 54.672C148.8 55.44 149.029 56.0373 149.435 56.464C149.84 56.88 150.389 57.088 151.083 57.088C151.637 57.088 152.096 56.944 152.459 56.656C152.832 56.368 153.067 55.9733 153.163 55.472L154.459 55.696C154.277 56.5067 153.883 57.1413 153.275 57.6C152.677 58.048 151.947 58.272 151.083 58.272C149.931 58.272 149.024 57.92 148.363 57.216C147.701 56.5013 147.371 55.5253 147.371 54.288C147.371 53.0613 147.685 52.096 148.315 51.392C148.944 50.688 149.808 50.336 150.907 50.336C152.005 50.336 152.869 50.6933 153.499 51.408C154.139 52.112 154.459 53.04 154.459 54.192V54.672H148.747ZM148.779 53.68H153.083C153.083 53.0507 152.875 52.5333 152.459 52.128C152.053 51.712 151.536 51.504 150.907 51.504C150.299 51.504 149.813 51.696 149.451 52.08C149.088 52.4533 148.864 52.9867 148.779 53.68ZM160.234 47.52H161.29C161.29 48.1173 161.061 48.6187 160.602 49.024C160.154 49.4187 159.594 49.616 158.922 49.616C158.25 49.616 157.685 49.4187 157.226 49.024C156.778 48.6187 156.554 48.1173 156.554 47.52H157.626C157.626 47.8613 157.749 48.16 157.994 48.416C158.25 48.6613 158.56 48.784 158.922 48.784C159.285 48.784 159.594 48.6613 159.85 48.416C160.106 48.16 160.234 47.8613 160.234 47.52ZM156.986 50.64V56.32L160.586 50.64H162.282V58H160.938V52.288L157.338 58H155.642V50.64H156.986Z" fill="white"/>
</svg>
